# xmcd CD database file
#
# Track frame offsets:
#	150
#	30807
#	52848
#	68393
#	94892
#	111583
#	137758
#	162065
#	194896
#	212990
#	235700
#	255512
#	275716
#	295121
#
# Disc length: 4199 seconds
#
# Revision: 0
# Processed by: cddbd v1.5.2PL0 Copyright (c) Steve Scherf et al.
# Submitted via: CDex 1.70beta2
#
DISCID=c810650e
DTITLE=Juan Formell y Los Van Van - Los Exitos
DYEAR=1998
DGENRE=Salsa
TTITLE0=Sandunguera (Por Encima del Nivel)
TTITLE1=La Titimania
TTITLE2=Recaditos No
TTITLE3=El Negro No Tiene Na'
TTITLE4=Solo Queria Bailar Lambada
TTITLE5=Aqui El Que Baila Gana
TTITLE6=Tranquilo Mota
TTITLE7=Anda Ven y Muevete
TTITLE8=Esto Si Es Distinto
TTITLE9=Que Palo Es Ese
TTITLE10=Ahora Dime Si Me Quieres
TTITLE11=Bailando Mojao
TTITLE12=Nosotros Los Del Caribe
TTITLE13=Cuentame
EXTD=YEAR: 1998
EXTT0=
EXTT1=
EXTT2=
EXTT3=
EXTT4=
EXTT5=
EXTT6=
EXTT7=
EXTT8=
EXTT9=
EXTT10=
EXTT11=
EXTT12=
EXTT13=
PLAYORDER=
